HIERARCHY
ROOT Hips
{
    OFFSET 0.0 0.0 0.0
    CHANNELS 6 Xposition Yposition Zposition Zrotation Xrotation Yrotation
    JOINT LeftHipJoint
    {
        OFFSET 0.1 0.0 0.0
        CHANNELS 3 Zrotation Xrotation Yrotation
        JOINT LeftUpLeg
        {
            OFFSET 141.07910230240566 0.0 0.0
            CHANNELS 3 Zrotation Xrotation Yrotation
            JOINT LeftLeg
            {
                OFFSET 0.0 0.0 -384.60499815331195
                CHANNELS 3 Zrotation Xrotation Yrotation
                JOINT LeftFoot
                {
                    OFFSET 0.0 0.0 -379.6510470062211
                    CHANNELS 3 Zrotation Xrotation Yrotation
                    End Site
                    {
                        OFFSET 0.0 -0.1 0.0
                    }
                }
            }
        }
    }
    JOINT LowerBack
    {
        OFFSET 0.0 0.0 0.1
        CHANNELS 3 Zrotation Xrotation Yrotation
        JOINT Spine
        {
            OFFSET 0.0 0.0 175.17710171551616
            CHANNELS 3 Zrotation Xrotation Yrotation
            JOINT Spine1
            {
                OFFSET 0.0 0.0 171.03889791794862
                CHANNELS 3 Zrotation Xrotation Yrotation
                JOINT LeftShoulder
                {
                    OFFSET 0.1 0.0 0.0
                    CHANNELS 3 Zrotation Xrotation Yrotation
                    JOINT LeftArm
                    {
                        OFFSET 147.96543901200766 0.0 0.0
                        CHANNELS 3 Zrotation Xrotation Yrotation
                        JOINT LeftForeArm
                        {
                            OFFSET 263.9255193114999 0.0 0.0
                            CHANNELS 3 Zrotation Xrotation Yrotation
                            JOINT LeftHand
                            {
                                OFFSET 100.03127677743188 0.0 0.0
                                CHANNELS 3 Zrotation Xrotation Yrotation
                                End Site
                                {
                                    OFFSET 0.1 0.0 0.0
                                }
                            }
                        }
                    }
                }
                JOINT Neck
                {
                    OFFSET 0.0 0.0 0.1
                    CHANNELS 3 Zrotation Xrotation Yrotation
                    JOINT Neck1
                    {
                        OFFSET 0.0 0.0 123.76790618548254
                        CHANNELS 3 Zrotation Xrotation Yrotation
                        End Site
                        {
                            OFFSET 0.0 0.0 103.56010564211357
                        }
                    }
                }
                JOINT RightShoulder
                {
                    OFFSET -0.1 0.0 0.0
                    CHANNELS 3 Zrotation Xrotation Yrotation
                    JOINT RightArm
                    {
                        OFFSET -147.96543901200766 0.0 0.0
                        CHANNELS 3 Zrotation Xrotation Yrotation
                        JOINT RightForeArm
                        {
                            OFFSET -263.9255193114999 0.0 0.0
                            CHANNELS 3 Zrotation Xrotation Yrotation
                            JOINT RightHand
                            {
                                OFFSET -100.03127677743188 0.0 0.0
                                CHANNELS 3 Zrotation Xrotation Yrotation
                                End Site
                                {
                                    OFFSET -0.1 0.0 0.0
                                }
                            }
                        }
                    }
                }
            }
        }
    }
    JOINT RightHipJoint
    {
        OFFSET -0.1 0.0 0.0
        CHANNELS 3 Zrotation Xrotation Yrotation
        JOINT RightUpLeg
        {
            OFFSET -141.07910230240566 0.0 0.0
            CHANNELS 3 Zrotation Xrotation Yrotation
            JOINT RightLeg
            {
                OFFSET 0.0 0.0 -384.60499815331195
                CHANNELS 3 Zrotation Xrotation Yrotation
                JOINT RightFoot
                {
                    OFFSET 0.0 0.0 -379.6510470062211
                    CHANNELS 3 Zrotation Xrotation Yrotation
                    End Site
                    {
                        OFFSET 0.0 -0.1 0.0
                    }
                }
            }
        }
    }
}
MOTION
Frames: 9
Frame Time: 0.03333333333333333
0.0 0.0 0.0 126.65102563133667 13.858428929194284 -134.60615455943673 -1.5902773407317584e-15 0.0 0.0 17.008191519930318 -26.73853381166467 49.61658282867088 40.361753799721484 67.00896125564334 -50.43595824808457 4.4139062980501586e-32 7.951386703658792e-16 -6.3611093629270335e-15 -1.5902773407317584e-15 0.0 0.0 -9.485439518824869 15.820198234813994 11.751943285968565 -7.776082655012591 -3.60456257384331e-15 6.130804927588673e-15 1.5902773407317584e-15 0.0 0.0 155.27994708329268 26.438519050403006 126.38681188652289 -94.73647555885863 -7.391739072738474e-15 1.5450699267416883e-14 0.0 0.0 1.5902773407317584e-15 1.5902773407317584e-15 0.0 0.0 -5.178546335692792 -4.674250783134557 10.486693451524351 1.5902773407317584e-15 0.0 0.0 153.57317900593193 17.688238074804694 -74.41754512970228 98.25007561346226 6.567719505206358e-15 -2.7284979219030773e-15 -6.361109362927032e-15 3.1805546814635168e-15 -9.541664044390547e-15 -1.5902773407317584e-15 0.0 0.0 11.667659697857882 -19.131360728642054 45.03564089688816 21.709640016175033 58.28017200884688 -37.908355222420525 7.951386703658792e-16 0.0 0.0
0.0 0.0 0.0 133.906068062099 15.95786667825736 -135.8042292489247 -3.1805546814635164e-15 1.7655625192200634e-31 -6.361109362927033e-15 18.674612507392858 -35.75071941170653 50.456041700441425 46.84784525182437 62.99624012637512 -44.275759434132574 -7.951386703658792e-16 0.0 0.0 -3.1805546814635164e-15 1.7655625192200634e-31 -6.361109362927033e-15 -4.996863800804179 11.074335938721926 15.263627814378996 -11.881688004047962 3.1634728365428885e-15 3.291924881202294e-16 -1.5902773407317588e-15 7.951386703658794e-16 1.1034765745125397e-32 158.01732353239072 18.167331821508917 124.31069924202015 -73.06304200046199 -1.324793676453045e-15 -8.897884376022537e-15 0.0 0.0 2.5842006786891076e-15 -1.5902773407317588e-15 7.951386703658794e-16 1.1034765745125397e-32 -31.297006969166663 -1.2091656977860115 5.526308707145459 -1.5902773407317588e-15 7.951386703658794e-16 1.1034765745125397e-32 135.2316775020564 9.087184243059038 -76.07917803366311 75.43285285447813 -2.968752193605391e-15 1.43579240195363e-14 -3.1805546814635164e-15 -3.1805546814635164e-15 2.9817700138720468e-15 -3.1805546814635164e-15 1.7655625192200634e-31 -6.361109362927033e-15 13.802083488655935 -28.177868242461535 39.925613077396115 24.51110124704798 61.96669194821863 -29.447289197601496 -1.5902773407317584e-15 0.0 0.0
0.0 0.0 0.0 144.55254206719897 35.763939178554246 -132.84902947341985 1.5902773407317584e-15 0.0 0.0 22.581175036389403 -41.351485609391304 31.181831306842202 -7.692039068360153 82.66314993909829 13.809656520232714 0.0 0.0 0.0 1.5902773407317584e-15 0.0 0.0 -4.059148963893038 9.223879109123747 6.910177783434912 -13.842470915077532 -1.2583908222107508e-14 1.1288056616080811e-14 0.0 0.0 0.0 -170.69447942700847 22.626083951396012 115.7849169571056 -101.95336675973967 4.473534106795732e-15 4.683468361100467e-16 0.0 0.0 -1.5902773407317584e-15 0.0 0.0 0.0 -12.904366824793408 7.9430817610695446 11.763615296811052 0.0 0.0 0.0 -129.07467195627584 4.722957619245877 -99.43940113459458 117.80695889485864 4.56616661845579e-15 8.969564998143616e-16 0.0 0.0 1.5902773407317584e-15 1.5902773407317584e-15 0.0 0.0 24.532126474529026 -43.6318970175986 34.10655598298631 6.653206859987481 84.78813252042369 -0.30725573189663796 0.0 0.0 0.0
0.0 0.0 0.0 135.95224456052046 25.174040901473493 -129.4348967015878 -3.1805546814635164e-15 6.3611093629270335e-15 -6.3611093629270335e-15 14.248059174770573 -34.94173696626614 39.62629385345499 41.85189213792269 67.16365045504857 -41.247620973825654 0.0 0.0 0.0 -3.1805546814635164e-15 6.3611093629270335e-15 -6.3611093629270335e-15 -5.871352617521924 16.174348483784055 9.101398482856233 -9.285634121028798 4.4775401024723545e-15 -6.018428747243776e-15 0.0 0.0 -6.361109362927033e-15 159.23706894149777 20.69015317454902 130.42091103270852 -71.12659366709016 0.0 0.0 5.793252016190833e-32 -1.5902773407317584e-15 4.174478019420866e-15 0.0 0.0 -6.361109362927033e-15 -15.37537553417102 -0.42942795937883943 8.291679475599596 0.0 0.0 -6.361109362927033e-15 -179.66767510391415 15.330031994606442 -84.18150433925383 77.18147720594101 -1.3911719947807092e-14 2.9635468157895022e-15 0.0 0.0 -2.3854160110976376e-15 -3.1805546814635164e-15 6.3611093629270335e-15 -6.3611093629270335e-15 12.539731646372484 -31.58137629790266 32.211523498001554 22.483023114362762 66.98980748714771 -25.03860015028699 0.0 0.0 0.0
0.0 0.0 0.0 141.44288385945106 16.70589512162592 -135.52562247877086 3.1805546814635168e-15 0.0 0.0 24.151384324783425 -43.40840401808835 57.264654416093556 50.36813569592107 59.81795361219767 -48.66266339795701 -1.5902773407317584e-15 1.5902773407317584e-15 2.2069531490250793e-32 3.1805546814635168e-15 0.0 0.0 -4.956814504656365 11.291146037953142 15.110217296480835 -16.987189848180055 9.743235977365311e-15 -1.1408275615051032e-14 -1.5902773407317584e-15 0.0 0.0 -175.4534178610765 37.75408503727263 122.75968721692671 -70.36970580010751 6.17198860287567e-16 1.0164021271381694e-14 -1.5902773407317584e-15 -3.034560579909484e-32 2.1866313435061676e-15 -1.5902773407317584e-15 0.0 0.0 -26.309947043028124 0.1547911046352728 1.2202090398417489 -1.5902773407317584e-15 0.0 0.0 162.44400058379048 21.830449495476472 -76.29204661243632 80.34166383124294 -4.8606796301645146e-15 4.1033530021217686e-15 0.0 0.0 1.3914926731402886e-15 3.1805546814635168e-15 0.0 0.0 16.90604591712071 -33.88147612562975 40.062296696966335 21.521870031398194 61.03804578224412 -28.100552832119266 0.0 0.0 0.0
0.0 0.0 0.0 144.96840278984573 35.65691121303213 -128.6646179832941 -1.5902773407317582e-15 8.827812596100317e-32 -6.361109362927033e-15 23.367857135447977 -44.11401105804245 34.68239826258201 23.316680187098296 82.78154430705914 -23.312292594096377 0.0 0.0 0.0 -1.5902773407317582e-15 8.827812596100317e-32 -6.361109362927033e-15 -4.408611380411537 10.645856242376508 10.112796808488703 -15.717801157403011 -7.876705690651044e-16 -1.0872248957723888e-16 0.0 0.0 0.0 -173.6687363864078 25.92349716232968 122.30672154605911 -93.77571652302753 -6.965581401552582e-15 6.521045044650452e-15 0.0 0.0 -3.1805546814635168e-15 0.0 0.0 0.0 -9.384444985341236 9.313492044276442 4.804831607315142 0.0 0.0 0.0 -127.66175202589585 10.85192413573956 -98.3785722406838 117.60060709643297 6.273957425263399e-16 -3.3383910871166006e-15 0.0 0.0 0.0 -1.5902773407317582e-15 8.827812596100317e-32 -6.361109362927033e-15 24.391090854806063 -45.29118174773011 36.04206866846141 32.759923788182626 83.57368092264826 -29.37225399308238 0.0 0.0 0.0
0.0 0.0 0.0 137.7617397144358 22.070262624773587 -122.58377892740769 0.0 0.0 0.0 12.444268530896325 -42.14884338111552 31.880230919266122 52.076466682745426 72.88929473314653 -49.900109322377965 0.0 0.0 0.0 0.0 0.0 0.0 -4.049127768259557 16.483203991496712 11.28106121477354 -13.882051180927567 7.687251410294679e-16 -6.314489210115668e-15 0.0 0.0 0.0 157.47972029293484 28.36586565966963 142.58969232133953 -65.22471103059378 4.444349327396271e-15 -2.16995454105006e-14 1.5902773407317584e-15 1.1034765745125397e-32 7.951386703658792e-16 0.0 0.0 0.0 -13.751774018824818 -2.7421669735990086 -0.8436705833365404 0.0 0.0 0.0 177.53965848497816 26.174146718336115 -74.15989492146925 79.7589220155798 1.0036277078902892e-16 -1.120008180533511e-15 0.0 0.0 -7.951386703658792e-15 0.0 0.0 0.0 10.467821949389684 -37.210028382138056 27.954097975240135 30.236307604713524 68.90030088483658 -30.995437325095036 -7.951386703658792e-16 0.0 0.0
0.0 0.0 0.0 134.78639448218064 16.682369462737466 -123.51148180645372 1.5902773407317584e-15 0.0 0.0 14.062201484571323 -40.91524603967772 42.595929120413544 49.419451907231874 62.408251627940665 -50.07810738981786 8.827812596100317e-32 1.5902773407317582e-15 -6.361109362927033e-15 1.5902773407317584e-15 0.0 0.0 -3.735460850575323 13.066151119644122 13.737445129513361 -20.213261092437552 0.0 0.0 3.1805546814635168e-15 6.3611093629270335e-15 -1.7655625192200634e-31 161.8532942734336 20.97724180115717 135.40564038299186 -68.13455537242312 -5.964044942335078e-16 2.359348621298348e-14 0.0 0.0 -1.0436195048552165e-15 3.1805546814635168e-15 6.3611093629270335e-15 -1.7655625192200634e-31 -17.621329985527602 -0.5210561322455531 3.955816361862381 3.1805546814635168e-15 6.3611093629270335e-15 -1.7655625192200634e-31 168.41648483249435 19.901278335802246 -72.27855495185453 78.73048031961387 -9.758826826227204e-16 -1.874055493673295e-14 0.0 0.0 1.9381505090168305e-15 1.5902773407317584e-15 0.0 0.0 10.798692090028048 -33.678317085770466 28.495576660251366 19.967018642534946 63.80674978815313 -24.070828512465276 0.0 0.0 0.0
0.0 0.0 0.0 136.8417649302132 31.234617370412597 -121.04525771758874 0.0 0.0 0.0 13.87372256482654 -43.044150327319535 25.352433666801392 73.44851608769099 84.30260686825812 -65.8968302596497 0.0 0.0 0.0 0.0 0.0 0.0 -2.661928650033948 10.255055316404192 7.812869647273325 -25.828678742116786 4.521773645233882e-15 -5.4893718684532354e-15 0.0 0.0 0.0 175.7881336271932 15.219101485580989 125.72129840821967 -75.57723115031771 1.0655208621451673e-15 1.2899989308011314e-14 0.0 0.0 -1.3914926731402886e-15 0.0 0.0 0.0 -3.7460255917114633 9.204178958328185 5.982605277264581 0.0 0.0 0.0 -113.14503752711023 9.040151414679961 -98.58571528641879 119.62664090836915 -1.0871221179990029e-15 2.8750045352972746e-16 0.0 0.0 0.0 0.0 0.0 0.0 14.379669128165556 -44.05602695895672 29.716273210747456 66.24344903521762 79.66673319932805 -59.95024075385213 0.0 0.0 6.361109362927035e-15
